<?xml version="1.0" encoding="UTF-8"?>
<svg width="133px" height="43px" viewBox="0 0 133 43" version="1.1" xmlns="http://www.w3.org/2000/svg" xmlns:xlink="http://www.w3.org/1999/xlink">
    <defs>
        <polygon id="path-1" points="0 41.6988 132.512371 41.6988 132.512371 0.25404192 0 0.25404192"></polygon>
    </defs>
    <g id="design" stroke="none" stroke-width="1" fill="none" fill-rule="evenodd">
        <g id="PC_01-Copy-10" transform="translate(-90.000000, -50.000000)">
            <g id="01">
                <g id="MENU-Copy" transform="translate(59.000000, 50.000000)">
                    <g id="Group-12" transform="translate(31.000000, 0.000000)">
                        <polygon id="Fill-1" fill="#000000" points="28.2467671 41.4390486 32.8734094 41.4390486 32.8734094 15.5325464 28.2467671 15.5325464"></polygon>
                        <polygon id="Fill-2" fill="#000000" points="28.129369 6.84251647 32.9330707 6.84251647 32.9330707 1.39344559 28.129369 1.39344559"></polygon>
                        <g id="Group-11" transform="translate(0.000000, 0.387542)">
                            <path d="M54.3677936,14.557436 C51.1884204,14.557436 48.1630121,15.9129678 46.4719654,18.0954188 L46.0498452,18.6394278 L45.7136888,15.1457098 L41.4726,15.1457098 L41.4726,41.0515705 L46.1005253,41.0515705 L46.1005253,26.217062 C46.1005253,23.8338152 46.4706824,22.2935257 47.3777916,20.8943706 C48.5697358,19.1090204 50.6328641,18.1242872 53.1918874,18.1242872 C55.6976645,18.1242872 57.4810901,19.1853613 58.4940502,21.277358 C59.1054188,22.5636056 59.3434227,24.0140823 59.3434227,26.4524998 L59.3434227,41.0515705 L63.971348,41.0515705 L63.971348,25.9829072 C63.971348,22.9209322 63.5883605,20.9290126 62.6498168,19.1103034 C61.0665454,16.2613131 57.9686453,14.557436 54.3677936,14.557436" id="Fill-3" fill="#000000"></path>
                            <path d="M74.679664,25.8442106 L74.7329101,25.5240921 C75.4584692,21.2374554 79.0567549,18.1241589 83.2907869,18.1241589 C87.7897667,18.1241589 91.04099,21.1078684 91.3809956,25.5491114 L91.4040904,25.8442106 L74.679664,25.8442106 Z M83.2907869,14.5573077 C75.771531,14.5573077 70.1017772,20.3778186 70.1017772,28.0978703 C70.1017772,35.979585 75.6483592,41.6987358 83.2907869,41.6987358 C90.1659568,41.6987358 94.4840279,37.3530794 95.69201,33.1934637 L90.9473281,33.1934637 C90.0151996,35.6139186 87.6191224,38.1299601 83.5846031,38.1299601 C79.3088723,38.1299601 74.7393253,34.7991882 74.4955477,29.227587 L74.4827173,28.9421106 L96.1853389,28.9421106 L96.1853389,28.391045 C96.1853389,21.5043278 92.1989336,14.5573077 83.2907869,14.5573077 L83.2907869,14.5573077 Z" id="Fill-5" fill="#000000"></path>
                            <mask id="mask-2" fill="white">
                                <use xlink:href="#path-1"></use>
                            </mask>
                            <g id="Clip-8"></g>
                            <polygon id="Fill-7" fill="#000000" mask="url(#mask-2)" points="0 41.0515063 4.62728376 41.0515063 4.62728376 1.00590336 0 1.00590336"></polygon>
                            <polygon id="Fill-9" fill="#000000" mask="url(#mask-2)" points="22.0850317 15.1453891 16.7430946 15.1453891 5.27849071 27.8096354 16.6911315 41.0518912 22.720778 41.0518912 10.8372615 27.3419673"></polygon>
                            <path d="M124.504598,12.0903425 C124.504598,8.93213957 124.605316,7.94740637 124.806754,7.14614789 C125.323177,5.07917045 126.878863,3.93983093 129.186411,3.93983093 C129.90363,3.93983093 130.725417,4.08930509 131.693471,4.39274405 L132.512692,0.961253568 C131.415693,0.504491328 130.098652,0.253657008 128.774555,0.253657008 C123.007932,0.253657008 120.210263,4.63972925 119.995995,8.98923485 L119.992146,9.05851901 C119.933768,10.2793316 119.877314,11.43086 119.877314,13.501045 L119.877314,15.1452608 L116.713979,15.1452608 L108.705885,15.1452608 L108.705885,12.0903425 C108.705885,8.93213957 108.807245,7.94740637 109.008041,7.14614789 C109.525106,5.07917045 111.08015,3.93983093 113.388339,3.93983093 C114.105559,3.93983093 114.927346,4.08930509 115.894758,4.39274405 L116.713979,0.961253568 C115.617621,0.504491328 114.299939,0.253657008 112.976483,0.253657008 C107.20986,0.253657008 104.41155,4.63972925 104.197282,8.98923485 L104.193433,9.05851901 C104.135055,10.2793316 104.078601,11.43086 104.078601,13.501045 L104.078601,15.1452608 L99.4615816,15.1452608 L99.4615816,18.712112 L104.078601,18.712112 L104.078601,41.0517629 L108.705885,41.0517629 L108.705885,18.712112 L116.713979,18.712112 L119.877314,18.712112 L119.877314,41.0517629 L124.504598,41.0517629 L124.504598,18.712112 L132.512692,18.712112 L132.512692,15.1452608 L124.504598,15.1452608 L124.504598,12.0903425 Z" id="Fill-10" fill="#000000" mask="url(#mask-2)"></path>
                        </g>
                    </g>
                </g>
            </g>
        </g>
    </g>
</svg>