<?xml version="1.0" standalone="no"?>
<!DOCTYPE svg PUBLIC "-//W3C//DTD SVG 20010904//EN"
 "http://www.w3.org/TR/2001/REC-SVG-20010904/DTD/svg10.dtd">
<svg version="1.0" xmlns="http://www.w3.org/2000/svg"
 width="1494.000000pt" height="1048.000000pt" viewBox="0 0 1494.000000 1048.000000"
 preserveAspectRatio="xMidYMid meet">

<g transform="translate(0.000000,1048.000000) scale(0.100000,-0.100000)"
fill="#000000" stroke="none">
<path d="M4903 10469 c-1504 -96 -2880 -831 -3819 -2039 -696 -897 -1084
-2038 -1084 -3190 0 -1403 556 -2732 1556 -3722 916 -905 2080 -1426 3369
-1508 105 -6 1851 -9 5090 -7 l4930 2 -4655 5 c-2560 3 -4637 6 -4615 8 22 1
99 9 170 17 1185 137 2273 668 3117 1522 979 989 1518 2298 1518 3683 0 1629
-748 3145 -2050 4156 -588 456 -1314 796 -2049 958 -229 51 -536 98 -706 108
-22 2 2055 5 4615 8 l4655 5 -4960 1 c-2728 1 -5015 -2 -5082 -7z m337 -5229
l0 -5230 -77 0 c-110 0 -375 18 -528 35 -1385 159 -2645 868 -3517 1979 -1467
1870 -1477 4517 -25 6401 681 883 1618 1525 2680 1835 435 128 925 203 1360
209 l107 1 0 -5230z m315 5220 c1417 -90 2697 -721 3631 -1790 1642 -1879
1716 -4684 176 -6646 -936 -1193 -2293 -1907 -3807 -2004 -88 -5 -193 -10
-232 -10 l-73 0 0 5230 0 5230 73 0 c39 0 144 -5 232 -10z"/>
</g>
</svg>
